<?xml version="1.0" standalone="no"?>
<!DOCTYPE svg PUBLIC "-//W3C//DTD SVG 20010904//EN"
 "http://www.w3.org/TR/2001/REC-SVG-20010904/DTD/svg10.dtd">
<svg version="1.0" xmlns="http://www.w3.org/2000/svg"
 width="258.000000pt" height="258.000000pt" viewBox="0 0 258.000000 258.000000"
 preserveAspectRatio="xMidYMid meet">
<metadata>
Created by potrace 1.14, written by Peter Selinger 2001-2017
</metadata>
<g transform="translate(0.000000,258.000000) scale(0.100000,-0.100000)"
fill="#000000" stroke="none">
<path d="M1024 2525 c-30 -30 -54 -84 -54 -121 0 -38 -21 -105 -41 -132 -19
-25 -36 -143 -23 -163 4 -7 8 -54 8 -105 1 -75 4 -96 20 -113 15 -17 18 -30
13 -71 -7 -59 13 -138 43 -165 11 -10 20 -26 20 -35 0 -10 21 -41 47 -70 l47
-53 -32 -27 c-23 -19 -49 -29 -85 -33 -74 -9 -117 -23 -152 -51 -25 -20 -30
-31 -29 -68 1 -61 62 -177 86 -162 4 3 7 0 6 -8 -2 -8 5 -12 20 -11 12 2 22
-2 22 -7 0 -19 46 -33 68 -21 19 10 23 8 37 -19 22 -42 59 -59 83 -37 10 10
23 17 28 17 6 0 10 -48 10 -122 -1 -95 3 -135 18 -176 10 -30 22 -50 26 -45 4
4 15 39 25 77 17 61 20 66 32 50 7 -10 13 -34 13 -53 0 -24 8 -44 24 -61 14
-14 44 -47 69 -74 24 -27 49 -46 54 -43 6 4 14 22 17 41 6 29 11 35 39 39 23
3 40 -2 64 -20 18 -14 37 -22 42 -19 5 4 13 32 17 64 4 32 10 50 13 40 3 -9
19 -26 34 -38 22 -18 30 -20 42 -10 10 8 15 9 15 2 0 -6 -5 -14 -11 -18 -6 -3
-9 -20 -6 -38 5 -38 -11 -64 -66 -104 -44 -31 -47 -38 -49 -104 -1 -33 -3 -35
-14 -20 -18 23 -17 42 3 64 9 10 12 18 6 18 -5 0 -18 -9 -27 -19 -16 -18 -16
-21 3 -59 24 -46 74 -92 102 -92 11 0 33 -7 48 -14 26 -14 28 -20 35 -102 7
-102 5 -105 -70 -102 -27 1 -54 -1 -60 -4 -5 -3 -37 -8 -71 -12 -88 -10 -163
-33 -163 -52 0 -16 55 -43 92 -45 13 -1 5 -5 -17 -9 -22 -4 105 -8 283 -9
l322 -1 0 303 0 302 23 10 c43 19 55 96 48 300 -3 69 -13 93 -47 105 l-24 10
0 755 c0 597 -3 755 -12 755 -21 0 -153 -76 -153 -87 0 -6 -4 -15 -9 -20 -5
-5 -6 -3 -2 5 28 49 -100 -61 -170 -147 -50 -60 -68 -91 -44 -76 6 3 10 1 10
-5 0 -6 -6 -10 -12 -9 -17 3 -84 -10 -128 -24 -19 -6 -41 -10 -49 -8 -7 1 -10
-2 -6 -8 3 -6 1 -11 -5 -11 -7 0 -10 7 -6 15 4 10 -7 21 -33 35 -22 11 -72 46
-113 78 -95 77 -156 115 -184 115 -27 0 -48 39 -58 110 -4 26 -12 47 -17 47
-5 0 -21 -11 -35 -25z m40 -38 c4 -23 13 -55 21 -71 14 -26 14 -32 -1 -54 -10
-14 -19 -20 -23 -14 -3 6 -20 13 -36 17 l-30 6 25 -15 25 -16 -26 4 c-23 4
-29 -1 -42 -36 l-16 -40 30 -25 c27 -23 30 -31 27 -72 -3 -44 -5 -46 -40 -55
-32 -8 -38 -14 -38 -36 0 -22 7 -30 40 -43 l40 -15 0 -57 c0 -54 -1 -57 -32
-70 -49 -20 -63 6 -63 120 0 50 -3 95 -7 101 -11 16 9 134 25 153 21 24 38 79
43 135 3 48 43 126 63 126 5 0 12 -19 15 -43z m958 26 c-10 -4 -10 -8 -1 -19
8 -9 8 -14 1 -14 -6 0 -14 4 -17 10 -4 6 -27 -1 -58 -16 -29 -15 -48 -23 -44
-18 15 16 122 71 127 66 3 -3 -1 -7 -8 -9z m-905 -153 c-14 -11 -33 -41 -43
-65 -9 -25 -19 -44 -21 -41 -14 14 57 126 80 126 5 0 -2 -9 -16 -20z m44 -44
c-28 -29 -32 -39 -27 -68 l5 -33 -11 33 c-10 31 -9 35 22 67 19 19 36 35 39
35 3 0 -10 -15 -28 -34z m-13 -161 c-6 -14 -13 -23 -15 -21 -5 5 15 46 22 46
3 0 -1 -11 -7 -25z m-28 -55 c-9 -17 -7 -28 10 -55 12 -19 19 -35 17 -35 -3 0
-15 16 -27 35 -17 27 -19 38 -10 55 6 11 13 20 16 20 2 0 0 -9 -6 -20z m890
-160 c0 -5 -4 -10 -10 -10 -5 0 -10 5 -10 10 0 6 5 10 10 10 6 0 10 -4 10 -10z
m-889 -47 c-12 -20 -14 -14 -5 12 4 9 9 14 11 11 3 -2 0 -13 -6 -23z m-86
-114 c22 -41 18 -69 -10 -95 l-25 -23 -16 24 c-17 27 -30 96 -21 118 9 24 56
8 72 -24z m195 -23 c0 -3 -4 -8 -10 -11 -5 -3 -10 -1 -10 4 0 6 5 11 10 11 6
0 10 -2 10 -4z m440 -72 c0 -8 -4 -12 -10 -9 -5 3 -10 10 -10 16 0 5 5 9 10 9
6 0 10 -7 10 -16z m294 -140 c26 -20 46 -38 43 -40 -2 -2 -35 -15 -74 -28
l-70 -24 19 36 c10 20 18 49 18 64 0 15 4 28 9 28 4 0 29 -16 55 -36z m-854
-16 c0 -12 -6 -9 -26 13 -19 22 -19 22 4 8 12 -8 22 -17 22 -21z m729 -75 c1
-7 -3 -13 -9 -13 -5 0 -10 15 -9 33 0 27 2 29 9 12 5 -11 9 -26 9 -32z m-184
-73 c55 -40 105 -80 112 -88 11 -13 14 -11 24 14 6 16 13 45 16 66 5 30 10 37
33 40 15 2 36 1 46 -3 17 -7 17 -8 2 -8 -21 -1 -21 -2 -6 -38 29 -69 78 -91
126 -57 l23 16 -3 -63 -3 -64 -43 -24 c-38 -20 -47 -22 -67 -11 -13 7 -36 10
-52 7 -109 -23 -108 -22 -107 -44 0 -18 -7 -22 -53 -28 -71 -9 -213 4 -240 21
-14 9 -23 24 -23 40 0 14 -18 50 -39 81 -24 32 -37 61 -34 70 5 12 9 10 20
-11 7 -14 18 -26 24 -26 6 0 6 8 -1 21 -14 26 -13 27 33 33 35 4 61 -8 35 -16
-18 -6 8 -64 40 -88 34 -27 68 -25 99 6 21 21 24 31 19 64 -3 21 -9 45 -12 54
-4 11 -1 16 11 16 9 0 15 6 12 13 -4 14 -64 15 -150 3 l-59 -8 42 62 c40 59
42 60 58 42 9 -11 62 -52 117 -92z m122 -32 c-3 -7 -5 -2 -5 12 0 14 2 19 5
13 2 -7 2 -19 0 -25z m2 -25 c2 -2 0 -3 -5 -3 -5 0 -22 12 -39 26 l-30 26 35
-23 c19 -12 37 -24 39 -26z m186 -230 c-3 -16 -10 -32 -15 -37 -10 -10 -70 2
-70 14 0 14 52 50 72 50 17 0 19 -4 13 -27z m45 -4 c0 -5 -4 -9 -10 -9 -5 0
-10 7 -10 16 0 8 5 12 10 9 6 -3 10 -10 10 -16z m-172 -11 c7 -7 12 -15 12
-18 0 -10 -47 -30 -54 -23 -11 11 -6 41 7 46 19 8 22 8 35 -5z m-72 -35 c-10
-10 -19 5 -10 18 6 11 8 11 12 0 2 -7 1 -15 -2 -18z m264 17 c0 -5 -4 -10 -9
-10 -5 0 -18 -3 -28 -6 -16 -5 -16 -4 1 10 23 18 36 20 36 6z m-140 -25 c0 -8
-9 -15 -20 -15 -20 0 -26 11 -13 23 12 13 33 7 33 -8z m-486 -11 c3 -8 2 -12
-4 -9 -6 3 -10 10 -10 16 0 14 7 11 14 -7z m112 1 c-28 -15 -46 -13 -46 6 0 5
17 9 38 9 l37 0 -29 -15z m-70 -22 c-7 -7 -26 7 -26 19 0 6 6 6 15 -2 9 -7 13
-15 11 -17z m299 20 c-11 -3 -29 -12 -40 -22 -20 -16 -20 -16 -1 7 11 12 29
21 40 21 20 -1 20 -2 1 -6z m330 -79 c24 -83 20 -135 -12 -166 -25 -23 -37
-26 -108 -27 -44 -1 -102 2 -128 7 l-48 10 16 -25 c16 -24 16 -24 -7 -12 -13
7 -26 13 -29 12 -10 -3 -26 38 -42 112 -21 92 -20 121 8 139 19 13 25 12 49
-3 26 -17 26 -19 10 -35 -11 -12 -25 -15 -45 -11 -35 8 -37 1 -5 -20 20 -13
29 -14 46 -5 29 16 36 6 16 -24 -38 -59 -7 -48 109 39 l100 74 13 -24 c7 -14
17 -25 22 -25 15 0 12 27 -5 43 -8 8 -11 18 -7 21 10 11 30 -23 47 -80z m-695
60 c0 -2 -9 -4 -21 -4 -11 0 -18 4 -14 10 5 8 35 3 35 -6z m170 6 c-8 -5 -22
-9 -30 -9 -10 0 -8 3 5 9 27 12 43 12 25 0z m550 -54 c0 -25 -4 -19 -18 24
-11 32 -10 33 3 16 8 -11 15 -29 15 -40z m-200 9 c0 -16 -47 -51 -57 -42 -3 3
-3 18 1 32 5 18 13 25 31 25 15 0 25 -6 25 -15z m160 -289 c0 -3 -4 -8 -10
-11 -5 -3 -10 -1 -10 4 0 6 5 11 10 11 6 0 10 -2 10 -4z m-123 -367 l45 -12
-6 -45 c-3 -25 -6 -60 -6 -78 l0 -34 -79 0 -78 0 -7 31 c-3 17 -6 53 -6 79 0
44 2 48 33 58 44 14 51 14 104 1z m-149 -129 c6 -36 12 -71 14 -79 5 -22 -20
-24 -31 -2 -6 11 -14 55 -17 98 -6 70 -5 76 9 63 8 -8 20 -44 25 -80z m237 25
c-12 -91 -20 -120 -35 -120 -9 0 -14 8 -13 20 2 11 6 52 9 91 6 64 9 71 26 66
17 -4 18 -11 13 -57z"/>
<path d="M2042 918 c3 -35 28 -52 28 -20 0 28 -10 52 -22 52 -5 0 -8 -14 -6
-32z"/>
<path d="M2050 835 c0 -24 5 -35 15 -35 10 0 15 11 15 35 0 24 -5 35 -15 35
-10 0 -15 -11 -15 -35z"/>
<path d="M640 2276 c0 -9 9 -48 20 -87 l19 -71 -72 -32 c-40 -18 -93 -41 -119
-52 -27 -10 -48 -21 -48 -24 0 -3 24 -17 53 -32 28 -16 66 -37 84 -48 l32 -19
-46 -76 c-25 -42 -43 -79 -39 -82 8 -8 226 28 226 38 0 5 -12 6 -27 3 -69 -12
-183 -30 -183 -28 0 1 18 33 40 70 22 38 40 72 40 76 0 4 -35 28 -77 52 l-77
45 40 17 c109 45 184 84 184 96 0 7 -7 38 -15 68 -8 30 -15 61 -15 68 0 7 45
-10 111 -43 61 -31 108 -51 104 -45 -6 10 -196 111 -222 118 -7 2 -13 -4 -13
-12z"/>
<path d="M761 2128 c2 -13 0 -29 -4 -35 -5 -8 -4 -13 2 -13 28 0 6 -24 -39
-43 -27 -11 -50 -26 -49 -31 1 -15 69 -71 69 -57 0 6 5 11 10 11 18 0 11 -18
-9 -25 -11 -3 -28 -21 -39 -39 l-20 -34 30 -4 c35 -6 86 28 69 45 -7 7 -5 14
7 23 11 9 13 13 4 14 -8 0 -6 8 8 22 24 26 20 34 -12 18 -16 -8 -11 -1 15 24
43 40 46 50 15 41 -22 -6 -22 -6 2 15 18 16 20 20 7 16 -11 -3 -16 -2 -12 4 3
6 13 10 21 10 8 0 14 2 14 5 0 9 -38 43 -43 38 -3 -2 -15 1 -27 7 -20 10 -21
9 -19 -12z"/>
<path d="M1553 133 c9 -2 25 -2 35 0 9 3 1 5 -18 5 -19 0 -27 -2 -17 -5z"/>
</g>
</svg>
